# xmcd
#
# Track frame offsets: 
#        150
#        13125
#        26625
#        40725
#        55425
#        69750
#        85050
#        100275
#        114450
#        126750
#        141525
#        152250
#        165825
#        178425
#        193875
#        210075
#        224625
#        239550
#        253800
#        267225
#
# Disc length: 3747 seconds
#
# Revision: 2
# Processed by: cddbd v1.5.2PL0 Copyright (c) Steve Scherf et al.
# Submitted via: ExactAudioCopy v0.99pb5
#
DISCID=210ea114
DTITLE=Βίκυ Μοσχολιού - Αξέχαστες Επιτυχίες Νο 2
DYEAR=1983
DGENRE=Ethnic
TTITLE0=Άλλη Αγάπη Έπιασες
TTITLE1=Πάρε Τον Δρόμο Τον Παλιό
TTITLE2=Λες Και Οργώνω Μέσ' Τα Βράχια
TTITLE3=Τον Αγαπώ, Τον Αγαπώ
TTITLE4=Ένα Πουλί Πληγώθηκε
TTITLE5=Που Να 'βρω Ταχυδρόμο
TTITLE6=Πήρα Απ' Το Χέρι Σου Νερό
TTITLE7=Τον Ήλιο Που 'χεις Μέσ' Τα Χέρια
TTITLE8=Η Πρώτη Δύσκολη Στιγμή
TTITLE9=Τι Σου 'φταιξαν Τα Νειάτα Μου
TTITLE10=Πειραιωτάκι
TTITLE11=Ξύπνησε Η Πόλη
TTITLE12=Μιλώ Για Τα Παιδιά Μου
TTITLE13=Νυν Και Αεί
TTITLE14=Τι Έχει Και Κλαίει Το Παιδί
TTITLE15=Αστέρι Στο Παράθυρο
TTITLE16=Φαρμάκι Τα Γεράματα
TTITLE17=Η Ρόζα Η Ναζιάρα
TTITLE18=Ήρθ' Ο Χειμώνας
TTITLE19=Μην Πιείς Νερό
EXTD=
EXTT0=
EXTT1=
EXTT2=
EXTT3=
EXTT4=
EXTT5=
EXTT6=
EXTT7=
EXTT8=
EXTT9=
EXTT10=
EXTT11=
EXTT12=
EXTT13=
EXTT14=
EXTT15=
EXTT16=
EXTT17=
EXTT18=
EXTT19=
PLAYORDER=
